<svg width="15" height="18" viewBox="0 0 15 18" fill="none" xmlns="http://www.w3.org/2000/svg">
<path d="M12.4492 9.49609C12.4414 8.0625 13.0898 6.98047 14.4023 6.18359C13.668 5.13281 12.5586 4.55469 11.0938 4.44141C9.70703 4.33203 8.19141 5.25 7.63672 5.25C7.05078 5.25 5.70703 4.48047 4.65234 4.48047C2.47266 4.51562 0.15625 6.21875 0.15625 9.68359C0.15625 10.707 0.34375 11.7643 0.71875 12.8555C1.21875 14.2891 3.02344 17.8047 4.90625 17.7461C5.89062 17.7227 6.58594 17.0469 7.86719 17.0469C9.10938 17.0469 9.75391 17.7461 10.8516 17.7461C12.75 17.7188 14.3828 14.5234 14.8594 13.0859C12.3125 11.8867 12.4492 9.57031 12.4492 9.49609ZM10.2383 3.08203C11.3047 1.81641 11.207 0.664062 11.1758 0.25C10.2344 0.304688 9.14453 0.890625 8.52344 1.61328C7.83984 2.38672 7.4375 3.34375 7.52344 4.42188C8.54297 4.5 9.47266 3.97656 10.2383 3.08203Z" fill="black"/>
</svg>
