<svg width="13" height="14" viewBox="0 0 13 14" fill="none" xmlns="http://www.w3.org/2000/svg">
<path d="M11.8943 12.2492C11.2293 13.1171 10.5243 13.9641 9.45067 13.9781C8.37706 13.9991 8.03254 13.4251 6.81471 13.4251C5.58887 13.4251 5.2123 13.9641 4.19477 13.9991C3.1452 14.0341 2.35201 13.0751 1.67899 12.2282C0.308936 10.4993 -0.740641 7.31451 0.669478 5.17266C1.36652 4.10873 2.6164 3.43677 3.97044 3.41577C4.99598 3.40177 5.97345 4.02473 6.6064 4.02473C7.23133 4.02473 8.41712 3.27578 9.65898 3.38777C10.1798 3.40877 11.638 3.56976 12.5754 4.77368C12.5033 4.81568 10.8368 5.66962 10.8528 7.44051C10.8768 9.55437 12.976 10.2613 13 10.2683C12.976 10.3173 12.6635 11.2763 11.8943 12.2492ZM7.31947 1.04993C7.90435 0.468969 8.8738 0.0279981 9.67501 0C9.77916 0.818946 9.4026 1.64489 8.84175 2.23285C8.28892 2.82781 7.37555 3.28978 6.4782 3.22679C6.35802 2.42184 6.8067 1.58189 7.31947 1.04993Z" fill="black"/>
</svg>
