<svg width="13" height="15" viewBox="0 0 13 15" fill="none" xmlns="http://www.w3.org/2000/svg">
<g clip-path="url(#clip0_15_992)">
<path d="M5.39648 2.16094L4.87695 2.9375H8.8418L8.32227 2.16094C8.28125 2.10078 8.21289 2.0625 8.13906 2.0625H5.57695C5.50313 2.0625 5.43477 2.09805 5.39375 2.16094H5.39648ZM9.41602 1.43359L10.4195 2.9375H10.7969H12.1094H12.3281C12.6918 2.9375 12.9844 3.23008 12.9844 3.59375C12.9844 3.95742 12.6918 4.25 12.3281 4.25H12.1094V12.5625C12.1094 13.7711 11.1305 14.75 9.92188 14.75H3.79688C2.58828 14.75 1.60938 13.7711 1.60938 12.5625V4.25H1.39062C1.02695 4.25 0.734375 3.95742 0.734375 3.59375C0.734375 3.23008 1.02695 2.9375 1.39062 2.9375H1.60938H2.92188H3.29922L4.30273 1.43086C4.58711 1.00703 5.06563 0.75 5.57695 0.75H8.13906C8.65039 0.75 9.12891 1.00703 9.41328 1.43086L9.41602 1.43359ZM2.92188 4.25V12.5625C2.92188 13.0465 3.31289 13.4375 3.79688 13.4375H9.92188C10.4059 13.4375 10.7969 13.0465 10.7969 12.5625V4.25H2.92188ZM5.10938 6V11.6875C5.10938 11.9281 4.9125 12.125 4.67188 12.125C4.43125 12.125 4.23438 11.9281 4.23438 11.6875V6C4.23438 5.75938 4.43125 5.5625 4.67188 5.5625C4.9125 5.5625 5.10938 5.75938 5.10938 6ZM7.29688 6V11.6875C7.29688 11.9281 7.1 12.125 6.85938 12.125C6.61875 12.125 6.42188 11.9281 6.42188 11.6875V6C6.42188 5.75938 6.61875 5.5625 6.85938 5.5625C7.1 5.5625 7.29688 5.75938 7.29688 6ZM9.48438 6V11.6875C9.48438 11.9281 9.2875 12.125 9.04688 12.125C8.80625 12.125 8.60938 11.9281 8.60938 11.6875V6C8.60938 5.75938 8.80625 5.5625 9.04688 5.5625C9.2875 5.5625 9.48438 5.75938 9.48438 6Z" fill="currentColor"/>
</g>
<defs>
<clipPath id="clip0_15_992">
<path d="M0.734375 0.75H12.9844V14.75H0.734375V0.75Z" fill="white"/>
</clipPath>
</defs>
</svg>
