<svg width="16" height="14" viewBox="0 0 16 14" fill="none" xmlns="http://www.w3.org/2000/svg">
<path d="M4.65938 1.025L4.33437 2H2C0.896875 2 0 2.89687 0 4V12C0 13.1031 0.896875 14 2 14H14C15.1031 14 16 13.1031 16 12V4C16 2.89687 15.1031 2 14 2H11.6656L11.3406 1.025C11.1375 0.4125 10.5656 0 9.91875 0H6.08125C5.43438 0 4.8625 0.4125 4.65938 1.025ZM8 5C8.79565 5 9.55871 5.31607 10.1213 5.87868C10.6839 6.44129 11 7.20435 11 8C11 8.79565 10.6839 9.55871 10.1213 10.1213C9.55871 10.6839 8.79565 11 8 11C7.20435 11 6.44129 10.6839 5.87868 10.1213C5.31607 9.55871 5 8.79565 5 8C5 7.20435 5.31607 6.44129 5.87868 5.87868C6.44129 5.31607 7.20435 5 8 5Z" fill="black"/>
</svg>
