<svg width="14" height="13" viewBox="0 0 14 13" fill="none" xmlns="http://www.w3.org/2000/svg">
<path d="M1.4 0C0.623 0 0 0.608947 0 1.36842V8.21053C0 8.57345 0.1475 8.92152 0.41005 9.17815C0.672601 9.43477 1.0287 9.57895 1.4 9.57895H7V13L9.1 10.9474L11.2 13V9.57895H12.6C12.9713 9.57895 13.3274 9.43477 13.5899 9.17815C13.8525 8.92152 14 8.57345 14 8.21053V3.42105V2.05263V1.36842C14 1.00549 13.8525 0.65743 13.5899 0.400801C13.3274 0.144172 12.9713 0 12.6 0H9.8H1.4ZM7 1.36842L9.1 2.73684L11.2 1.36842V3.76316L13.3 4.78947L11.2 5.81579V8.21053L9.1 6.84211L7 8.21053V5.81579L4.9 4.78947L7 3.76316V1.36842ZM1.4 1.36842H4.9V2.73684H1.4V1.36842ZM1.4 4.10526H3.5V5.47368H1.4V4.10526ZM1.4 6.84211H4.9V8.21053H1.4V6.84211Z" fill="currentColor"/>
</svg>
