<svg width="16" height="16" viewBox="0 0 16 16" fill="none" xmlns="http://www.w3.org/2000/svg">
<g clip-path="url(#clip0_11_325)">
<g clip-path="url(#clip1_11_325)">
<path d="M16 7.5C16 11.0906 12.4188 14 8.00001 14C6.84064 14 5.74064 13.8 4.74689 13.4406C4.37501 13.7125 3.76876 14.0844 3.05001 14.3969C2.30001 14.7219 1.39689 15 0.500011 15C0.296886 15 0.115636 14.8781 0.0375112 14.6906C-0.0406138 14.5031 0.00313619 14.2906 0.143761 14.1469L0.153136 14.1375C0.162511 14.1281 0.175011 14.1156 0.193761 14.0938C0.228136 14.0562 0.281261 13.9969 0.346886 13.9156C0.475011 13.7594 0.646886 13.5281 0.821886 13.2406C1.13439 12.7219 1.43126 12.0406 1.49064 11.275C0.553136 10.2125 1.11946e-05 8.90938 1.11946e-05 7.5C1.11946e-05 3.90937 3.58126 1 8.00001 1C12.4188 1 16 3.90937 16 7.5Z" fill="currentColor"/>
</g>
</g>
<defs>
<clipPath id="clip0_11_325">
<rect width="16" height="16" fill="white"/>
</clipPath>
<clipPath id="clip1_11_325">
<path d="M0 0H16V16H0V0Z" fill="white"/>
</clipPath>
</defs>
</svg>
