<svg width="13" height="16" viewBox="0 0 13 16" fill="none" xmlns="http://www.w3.org/2000/svg">
<g clip-path="url(#clip0_11_252)">
<path d="M6.20312 0C4.89687 0 3.78437 0.834375 3.375 2H2.20312C1.1 2 0.203125 2.89687 0.203125 4V14C0.203125 15.1031 1.1 16 2.20312 16H10.2031C11.3062 16 12.2031 15.1031 12.2031 14V4C12.2031 2.89687 11.3062 2 10.2031 2H9.03125C8.62187 0.834375 7.50938 0 6.20312 0ZM6.20312 2C6.46834 2 6.7227 2.10536 6.91023 2.29289C7.09777 2.48043 7.20312 2.73478 7.20312 3C7.20312 3.26522 7.09777 3.51957 6.91023 3.70711C6.7227 3.89464 6.46834 4 6.20312 4C5.93791 4 5.68355 3.89464 5.49602 3.70711C5.30848 3.51957 5.20312 3.26522 5.20312 3C5.20312 2.73478 5.30848 2.48043 5.49602 2.29289C5.68355 2.10536 5.93791 2 6.20312 2ZM2.45312 8.5C2.45312 8.30109 2.53214 8.11032 2.67279 7.96967C2.81345 7.82902 3.00421 7.75 3.20312 7.75C3.40204 7.75 3.5928 7.82902 3.73346 7.96967C3.87411 8.11032 3.95312 8.30109 3.95312 8.5C3.95312 8.69891 3.87411 8.88968 3.73346 9.03033C3.5928 9.17098 3.40204 9.25 3.20312 9.25C3.00421 9.25 2.81345 9.17098 2.67279 9.03033C2.53214 8.88968 2.45312 8.69891 2.45312 8.5ZM5.70312 8H9.70312C9.97812 8 10.2031 8.225 10.2031 8.5C10.2031 8.775 9.97812 9 9.70312 9H5.70312C5.42812 9 5.20312 8.775 5.20312 8.5C5.20312 8.225 5.42812 8 5.70312 8ZM2.45312 11.5C2.45312 11.3011 2.53214 11.1103 2.67279 10.9697C2.81345 10.829 3.00421 10.75 3.20312 10.75C3.40204 10.75 3.5928 10.829 3.73346 10.9697C3.87411 11.1103 3.95312 11.3011 3.95312 11.5C3.95312 11.6989 3.87411 11.8897 3.73346 12.0303C3.5928 12.171 3.40204 12.25 3.20312 12.25C3.00421 12.25 2.81345 12.171 2.67279 12.0303C2.53214 11.8897 2.45312 11.6989 2.45312 11.5ZM5.20312 11.5C5.20312 11.225 5.42812 11 5.70312 11H9.70312C9.97812 11 10.2031 11.225 10.2031 11.5C10.2031 11.775 9.97812 12 9.70312 12H5.70312C5.42812 12 5.20312 11.775 5.20312 11.5Z" fill="currentColor"/>
</g>
<defs>
<clipPath id="clip0_11_252">
<path d="M0.203125 0H12.2031V16H0.203125V0Z" fill="white"/>
</clipPath>
</defs>
</svg>
