<svg width="19" height="24" viewBox="0 0 19 24" fill="none" xmlns="http://www.w3.org/2000/svg">
<path d="M15.3781 2.09056C15.6547 1.44837 15.4484 0.698373 14.8812 0.285873C14.3141 -0.126627 13.5406 -0.0891267 13.0109 0.370248L1.01093 10.8702C0.542177 11.2827 0.373427 11.9437 0.59374 12.5249C0.814052 13.1062 1.37655 13.4999 1.99999 13.4999H7.22655L3.62186 21.9093C3.3453 22.5515 3.55155 23.3015 4.11874 23.714C4.68593 24.1265 5.45937 24.089 5.98905 23.6296L17.9891 13.1296C18.4578 12.7171 18.6266 12.0562 18.4062 11.4749C18.1859 10.8937 17.6281 10.5046 17 10.5046H11.7734L15.3781 2.09056Z" fill="currentColor"/>
</svg>
