<svg width="11" height="15" viewBox="0 0 11 15" fill="none" xmlns="http://www.w3.org/2000/svg">
<g clip-path="url(#clip0_32_1294)">
<path d="M7.65625 2.5H8.75C9.71523 2.5 10.5 3.28477 10.5 4.25V13C10.5 13.9652 9.71523 14.75 8.75 14.75H1.75C0.784766 14.75 0 13.9652 0 13V4.25C0 3.28477 0.784766 2.5 1.75 2.5H2.84375H3.10625C3.30859 1.50195 4.1918 0.75 5.25 0.75C6.3082 0.75 7.19141 1.50195 7.39375 2.5H7.65625ZM1.75 3.8125C1.50937 3.8125 1.3125 4.00938 1.3125 4.25V13C1.3125 13.2406 1.50937 13.4375 1.75 13.4375H8.75C8.99063 13.4375 9.1875 13.2406 9.1875 13V4.25C9.1875 4.00938 8.99063 3.8125 8.75 3.8125H8.3125V4.46875C8.3125 4.83242 8.01992 5.125 7.65625 5.125H5.25H2.84375C2.48008 5.125 2.1875 4.83242 2.1875 4.46875V3.8125H1.75ZM5.25 3.59375C5.42405 3.59375 5.59097 3.52461 5.71404 3.40154C5.83711 3.27847 5.90625 3.11155 5.90625 2.9375C5.90625 2.76345 5.83711 2.59653 5.71404 2.47346C5.59097 2.35039 5.42405 2.28125 5.25 2.28125C5.07595 2.28125 4.90903 2.35039 4.78596 2.47346C4.66289 2.59653 4.59375 2.76345 4.59375 2.9375C4.59375 3.11155 4.66289 3.27847 4.78596 3.40154C4.90903 3.52461 5.07595 3.59375 5.25 3.59375Z" fill="black"/>
</g>
<defs>
<clipPath id="clip0_32_1294">
<path d="M0 0.75H10.5V14.75H0V0.75Z" fill="white"/>
</clipPath>
</defs>
</svg>
