<svg width="17" height="16" viewBox="0 0 17 16" fill="none" xmlns="http://www.w3.org/2000/svg">
<g clip-path="url(#clip0_8_46)">
<path d="M16.2344 8C16.2344 3.71875 12.7656 0.25 8.48438 0.25C4.20312 0.25 0.734375 3.71875 0.734375 8C0.734375 11.8681 3.56844 15.0744 7.27344 15.6562V10.2403H5.30469V8H7.27344V6.2925C7.27344 4.35031 8.42969 3.2775 10.2006 3.2775C11.0487 3.2775 11.9356 3.42875 11.9356 3.42875V5.335H10.9581C9.99563 5.335 9.69531 5.9325 9.69531 6.54531V8H11.8447L11.5009 10.2403H9.69531V15.6562C13.4003 15.0744 16.2344 11.8681 16.2344 8Z" fill="#2563EB"/>
</g>
<defs>
<clipPath id="clip0_8_46">
<path d="M0.484375 0H16.4844V16H0.484375V0Z" fill="white"/>
</clipPath>
</defs>
</svg>
