<svg width="17" height="16" viewBox="0 0 17 16" fill="none" xmlns="http://www.w3.org/2000/svg">
<g clip-path="url(#clip0_23_290)">
<g clip-path="url(#clip1_23_290)">
<path d="M0.340462 1.71563C0.546712 1.27813 0.984212 1 1.46859 1H14.9686C15.453 1 15.8905 1.27813 16.0967 1.71563C16.303 2.15313 16.2405 2.66875 15.9342 3.04375L10.2186 10.0281V14C10.2186 14.3781 10.0061 14.725 9.66546 14.8938C9.32484 15.0625 8.92171 15.0281 8.61859 14.8L6.61859 13.3C6.36546 13.1125 6.21859 12.8156 6.21859 12.5V10.0281L0.499837 3.04063C0.196712 2.66875 0.131087 2.15 0.340462 1.71563Z" fill="black"/>
</g>
</g>
<defs>
<clipPath id="clip0_23_290">
<rect width="16" height="16" fill="white" transform="translate(0.21875)"/>
</clipPath>
<clipPath id="clip1_23_290">
<path d="M0.21875 0H16.2188V16H0.21875V0Z" fill="white"/>
</clipPath>
</defs>
</svg>
