<svg width="9" height="12" viewBox="0 0 9 12" fill="none" xmlns="http://www.w3.org/2000/svg">
<path d="M1.00014 0C0.445062 0 0 0.508571 0 1.14286V10.2857C0 10.5888 0.105371 10.8795 0.292934 11.0938C0.480496 11.3082 0.734886 11.4286 1.00014 11.4286H3.00042V10.3371L4.04556 9.14286H1.00014V8H5.0457L6.04584 6.85714H1.00014V5.71429H7.04598L8.00111 4.62286V3.42857L5.00069 0H1.00014ZM4.50063 0.857143L7.25101 4H4.50063V0.857143ZM8.07612 6.28571C8.00111 6.28571 7.9311 6.31429 7.87609 6.37714L7.36602 6.96L8.41117 8.14857L8.92124 7.57143C9.02625 7.44571 9.02625 7.24 8.92124 7.12L8.27115 6.37714C8.21614 6.31429 8.14613 6.28571 8.07612 6.28571ZM7.07098 7.29714L4.00056 10.8114V12H5.0407L8.11613 8.48571L7.07098 7.29714Z" fill="currentColor"/>
</svg>
