<svg width="16" height="16" viewBox="0 0 16 16" fill="none" xmlns="http://www.w3.org/2000/svg">
<g clip-path="url(#clip0_8_40)">
<g clip-path="url(#clip1_8_40)">
<path d="M15.2656 8.18125C15.2656 12.6031 12.2375 15.75 7.76562 15.75C3.47813 15.75 0.015625 12.2875 0.015625 8C0.015625 3.7125 3.47813 0.25 7.76562 0.25C9.85312 0.25 11.6094 1.01562 12.9625 2.27813L10.8531 4.30625C8.09375 1.64375 2.9625 3.64375 2.9625 8C2.9625 10.7031 5.12187 12.8938 7.76562 12.8938C10.8344 12.8938 11.9844 10.6938 12.1656 9.55313H7.76562V6.8875H15.1438C15.2156 7.28437 15.2656 7.66562 15.2656 8.18125Z" fill="#EF4444"/>
</g>
</g>
<defs>
<clipPath id="clip0_8_40">
<rect width="15.25" height="16" fill="white" transform="translate(0.015625)"/>
</clipPath>
<clipPath id="clip1_8_40">
<path d="M0.015625 0H15.2656V16H0.015625V0Z" fill="white"/>
</clipPath>
</defs>
</svg>
