<svg width="23" height="20" viewBox="0 0 23 20" fill="none" xmlns="http://www.w3.org/2000/svg">

<g clip-path="url(#clip0_9_1682)">
<path d="M22.7422 9.98047C22.7422 10.6836 22.1562 11.2344 21.4922 11.2344H20.2422L20.2695 17.4922C20.2695 17.5977 20.2617 17.7031 20.25 17.8086V18.4375C20.25 19.3008 19.5508 20 18.6875 20H18.0625C18.0195 20 17.9766 20 17.9336 19.9961C17.8789 20 17.8242 20 17.7695 20H16.5H15.5625C14.6992 20 14 19.3008 14 18.4375V17.5V15C14 14.3086 13.4414 13.75 12.75 13.75H10.25C9.55859 13.75 9 14.3086 9 15V17.5V18.4375C9 19.3008 8.30078 20 7.4375 20H6.5H5.25391C5.19531 20 5.13672 19.9961 5.07812 19.9922C5.03125 19.9961 4.98438 20 4.9375 20H4.3125C3.44922 20 2.75 19.3008 2.75 18.4375V14.0625C2.75 14.0273 2.75 13.9883 2.75391 13.9531V11.2344H1.5C0.796875 11.2344 0.25 10.6875 0.25 9.98047C0.25 9.62891 0.367188 9.31641 0.640625 9.04297L10.6562 0.3125C10.9297 0.0390625 11.2422 0 11.5156 0C11.7891 0 12.1016 0.078125 12.3359 0.273438L22.3125 9.04297C22.625 9.31641 22.7812 9.62891 22.7422 9.98047Z" fill="currentColor"/>
</g>

</svg>
