<svg width="27" height="29" viewBox="0 0 27 29" fill="none" xmlns="http://www.w3.org/2000/svg">

<g clip-path="url(#clip0_19_1724)">
<path d="M25.4906 15.4813C26.2875 15.4813 26.9906 14.825 26.9906 13.9766C27.0375 13.5547 26.85 13.1797 26.475 12.8516L14.5078 2.32812C14.2266 2.09375 13.8516 2 13.5234 2C13.1953 2 12.8203 2.04688 12.4922 2.375L0.46875 12.8516C0.140625 13.1797 0 13.5547 0 13.9766C0 14.8203 0.65625 15.4813 1.5 15.4813H3V23C3 24.6547 4.34531 26 6 26H10.8L9.33281 23.5531C9.14062 23.2344 9.21094 22.8266 9.49688 22.5922L13.5 19.25L10.6781 15.3688C10.1672 14.6656 11.0625 13.7984 11.7469 14.3375L17.2734 18.6781C17.6484 18.9734 17.6578 19.5406 17.2922 19.8453L13.5 23L15.3 26H21.0234C22.6875 26 24.0328 24.65 24.0234 22.9859L23.9906 15.4766H25.4906V15.4813Z" fill="currentColor"/>
</g>

</svg>
