<svg width="12" height="16" viewBox="0 0 12 16" fill="none" xmlns="http://www.w3.org/2000/svg">
<path d="M6 0C4.69375 0 3.58125 0.834375 3.17188 2H2C0.896875 2 0 2.89687 0 4V14C0 15.1031 0.896875 16 2 16H10C11.1031 16 12 15.1031 12 14V4C12 2.89687 11.1031 2 10 2H8.82812C8.41875 0.834375 7.30625 0 6 0ZM6 2C6.26522 2 6.51957 2.10536 6.70711 2.29289C6.89464 2.48043 7 2.73478 7 3C7 3.26522 6.89464 3.51957 6.70711 3.70711C6.51957 3.89464 6.26522 4 6 4C5.73478 4 5.48043 3.89464 5.29289 3.70711C5.10536 3.51957 5 3.26522 5 3C5 2.73478 5.10536 2.48043 5.29289 2.29289C5.48043 2.10536 5.73478 2 6 2ZM9.53125 8.53125L5.53125 12.5312C5.2375 12.825 4.7625 12.825 4.47188 12.5312L2.46875 10.5312C2.175 10.2375 2.175 9.7625 2.46875 9.47188C2.7625 9.18125 3.2375 9.17813 3.52813 9.47188L4.99687 10.9406L8.46875 7.46875C8.7625 7.175 9.2375 7.175 9.52812 7.46875C9.81875 7.7625 9.82187 8.2375 9.52812 8.52812L9.53125 8.53125Z" fill="currentColor"/>
</svg>
