<svg width="16" height="14" viewBox="0 0 16 14" fill="none" xmlns="http://www.w3.org/2000/svg">
<path d="M8.00001 0C8.44376 0 8.85313 0.234375 9.07813 0.61875L15.8281 12.1187C16.0563 12.5062 16.0563 12.9844 15.8344 13.3719C15.6125 13.7594 15.1969 14 14.75 14H1.25001C0.803131 14 0.387506 13.7594 0.165631 13.3719C-0.0562438 12.9844 -0.0531188 12.5031 0.171881 12.1187L6.92188 0.61875C7.14688 0.234375 7.55626 0 8.00001 0ZM8.00001 4C7.58438 4 7.25001 4.33437 7.25001 4.75V8.25C7.25001 8.66562 7.58438 9 8.00001 9C8.41563 9 8.75001 8.66562 8.75001 8.25V4.75C8.75001 4.33437 8.41563 4 8.00001 4ZM9.00001 11C9.00001 10.7348 8.89465 10.4804 8.70711 10.2929C8.51958 10.1054 8.26522 10 8.00001 10C7.73479 10 7.48044 10.1054 7.2929 10.2929C7.10536 10.4804 7.00001 10.7348 7.00001 11C7.00001 11.2652 7.10536 11.5196 7.2929 11.7071C7.48044 11.8946 7.73479 12 8.00001 12C8.26522 12 8.51958 11.8946 8.70711 11.7071C8.89465 11.5196 9.00001 11.2652 9.00001 11Z" fill="currentColor"/>
</svg>
