<svg width="14" height="14" viewBox="0 0 14 14" fill="none" xmlns="http://www.w3.org/2000/svg">
<path d="M7.61482 0C4.55463 0 2.087 2.29444 1.93277 5.18L0.374266 7.14778C0.179453 7.38889 0.374266 7.77778 0.71519 7.77778H1.93277V10.1111C1.93277 10.9744 2.6552 11.6667 3.55622 11.6667H4.36794V14H10.05V10.3522C11.9738 9.48111 13.2969 7.62222 13.2969 5.44444C13.2969 2.44222 10.7643 0 7.61482 0ZM5.17966 6.22222C4.73321 6.22222 4.36794 5.87222 4.36794 5.44444C4.36794 5.01667 4.73321 4.66667 5.17966 4.66667C5.62611 4.66667 5.99138 5.01667 5.99138 5.44444C5.99138 5.87222 5.62611 6.22222 5.17966 6.22222ZM7.61482 6.22222C7.16838 6.22222 6.8031 5.87222 6.8031 5.44444C6.8031 5.01667 7.16838 4.66667 7.61482 4.66667C8.06127 4.66667 8.42655 5.01667 8.42655 5.44444C8.42655 5.87222 8.06127 6.22222 7.61482 6.22222ZM10.05 6.22222C9.60354 6.22222 9.23827 5.87222 9.23827 5.44444C9.23827 5.01667 9.60354 4.66667 10.05 4.66667C10.4964 4.66667 10.8617 5.01667 10.8617 5.44444C10.8617 5.87222 10.4964 6.22222 10.05 6.22222Z" fill="currentColor"/>
</svg>
