<svg width="21" height="24" viewBox="0 0 21 24" fill="none" xmlns="http://www.w3.org/2000/svg">
<g clip-path="url(#clip0_74_82)">
<path d="M10.5 12C8.9087 12 7.38258 11.3679 6.25736 10.2426C5.13214 9.11742 4.5 7.5913 4.5 6C4.5 4.4087 5.13214 2.88258 6.25736 1.75736C7.38258 0.632141 8.9087 0 10.5 0C12.0913 0 13.6174 0.632141 14.7426 1.75736C15.8679 2.88258 16.5 4.4087 16.5 6C16.5 7.5913 15.8679 9.11742 14.7426 10.2426C13.6174 11.3679 12.0913 12 10.5 12ZM9.80156 16.8375L8.92969 15.3844C8.62969 14.8828 8.99062 14.25 9.57187 14.25H10.5H11.4234C12.0047 14.25 12.3656 14.8875 12.0656 15.3844L11.1938 16.8375L12.7594 22.6453L14.4469 15.7594C14.5406 15.3797 14.9062 15.1312 15.2859 15.2297C18.5719 16.0547 21 19.0266 21 22.5609C21 23.3578 20.3531 24 19.5609 24H13.3828C13.2844 24 13.1953 23.9812 13.1109 23.9484L13.125 24H7.875L7.88906 23.9484C7.80469 23.9812 7.71094 24 7.61719 24H1.43906C0.646875 24 0 23.3531 0 22.5609C0 19.0219 2.43281 16.05 5.71406 15.2297C6.09375 15.1359 6.45938 15.3844 6.55313 15.7594L8.24063 22.6453L9.80625 16.8375H9.80156Z" fill="currentColor"/>
</g>
<defs>
<clipPath id="clip0_74_82">
<path d="M0 0H21V24H0V0Z" fill="white"/>
</clipPath>
</defs>
</svg>
