<svg width="21" height="20" viewBox="0 0 21 20" fill="none" xmlns="http://www.w3.org/2000/svg">
<path d="M6.5 14.375C7.53516 14.375 8.375 15.2148 8.375 16.25V16.875L11.207 14.75C11.5312 14.5078 11.9258 14.375 12.332 14.375H17.75C18.0938 14.375 18.375 14.0938 18.375 13.75V2.5C18.375 2.15625 18.0938 1.875 17.75 1.875H2.75C2.40625 1.875 2.125 2.15625 2.125 2.5V13.75C2.125 14.0938 2.40625 14.375 2.75 14.375H6.5ZM8.375 19.2188L8.36719 19.2266L8.16797 19.375L7.5 19.875C7.3125 20.0156 7.05859 20.0391 6.84375 19.9336C6.62891 19.8281 6.5 19.6133 6.5 19.375V18.543V18.293V18.2812V18.125V16.25H4.625H2.75C1.37109 16.25 0.25 15.1289 0.25 13.75V2.5C0.25 1.12109 1.37109 0 2.75 0H17.75C19.1289 0 20.25 1.12109 20.25 2.5V13.75C20.25 15.1289 19.1289 16.25 17.75 16.25H12.332L8.375 19.2188Z" fill="currentColor"/>
</svg>
