<svg width="14" height="16" viewBox="0 0 14 16" fill="none" xmlns="http://www.w3.org/2000/svg">
<g clip-path="url(#clip0_11_343)">
<path d="M7 0C6.44688 0 6 0.446875 6 1V1.55938C3.73438 1.91875 2 3.88125 2 6.25V7.29375C2 8.7125 1.51563 10.0906 0.631253 11.1969L0.165628 11.7812C-0.0156219 12.0063 -0.0499969 12.3156 0.0750031 12.575C0.200003 12.8344 0.462503 13 0.750003 13H13.25C13.5375 13 13.8 12.8344 13.925 12.575C14.05 12.3156 14.0156 12.0063 13.8344 11.7812L13.3688 11.2C12.4844 10.0906 12 8.7125 12 7.29375V6.25C12 3.88125 10.2656 1.91875 8 1.55938V1C8 0.446875 7.55313 0 7 0ZM7 3H7.25C9.04375 3 10.5 4.45625 10.5 6.25V7.29375C10.5 8.79062 10.9344 10.25 11.7406 11.5H2.25938C3.06563 10.25 3.5 8.79062 3.5 7.29375V6.25C3.5 4.45625 4.95625 3 6.75 3H7ZM9 14H7H5C5 14.5312 5.20938 15.0406 5.58438 15.4156C5.95938 15.7906 6.46875 16 7 16C7.53125 16 8.04063 15.7906 8.41563 15.4156C8.79063 15.0406 9 14.5312 9 14Z" fill="#4B5563"/>
</g>
<defs>
<clipPath id="clip0_11_343">
<path d="M0 0H14V16H0V0Z" fill="white"/>
</clipPath>
</defs>
</svg>
