<svg width="21" height="20" viewBox="0 0 21 20" fill="none" xmlns="http://www.w3.org/2000/svg">
<g clip-path="url(#clip0_9_1690)">
<path d="M7.6875 1.875H13.3125C13.4844 1.875 13.625 2.01562 13.625 2.1875V3.75H7.375V2.1875C7.375 2.01562 7.51562 1.875 7.6875 1.875ZM5.5 2.1875V3.75H3C1.62109 3.75 0.5 4.87109 0.5 6.25V10H8H13H20.5V6.25C20.5 4.87109 19.3789 3.75 18 3.75H15.5V2.1875C15.5 0.980469 14.5195 0 13.3125 0H7.6875C6.48047 0 5.5 0.980469 5.5 2.1875ZM20.5 11.25H13V12.5C13 13.1914 12.4414 13.75 11.75 13.75H9.25C8.55859 13.75 8 13.1914 8 12.5V11.25H0.5V16.25C0.5 17.6289 1.62109 18.75 3 18.75H18C19.3789 18.75 20.5 17.6289 20.5 16.25V11.25Z" fill="currentColor"/>
</g>
<defs>
<clipPath id="clip0_9_1690">
<path d="M0.5 0H20.5V20H0.5V0Z" fill="white"/>
</clipPath>
</defs>
</svg>
