<svg width="17" height="16" viewBox="0 0 17 16" fill="none" xmlns="http://www.w3.org/2000/svg">
<path d="M8.5 7.5V0.51875C8.5 0.2375 8.71875 0 9 0C12.8656 0 16 3.13438 16 7C16 7.28125 15.7625 7.5 15.4813 7.5H8.5ZM0 8.5C0 4.70937 2.81562 1.57187 6.46875 1.07187C6.75625 1.03125 7 1.2625 7 1.55313V9L11.8906 13.8906C12.1 14.1 12.0844 14.4438 11.8438 14.6125C10.6187 15.4875 9.11875 16 7.5 16C3.35938 16 0 12.6438 0 8.5ZM16.45 9C16.7406 9 16.9688 9.24375 16.9312 9.53125C16.6906 11.2781 15.85 12.8312 14.6219 13.9781C14.4344 14.1531 14.1406 14.1406 13.9594 13.9563L9 9H16.45Z" fill="currentColor"/>
</svg>
