<svg width="16" height="16" viewBox="0 0 16 16" fill="none" xmlns="http://www.w3.org/2000/svg">
<g clip-path="url(#clip0_8_75)">
<g clip-path="url(#clip1_8_75)">
<path d="M4.89062 13.9906L4.49687 14.9125C3.9125 14.6156 3.375 14.25 2.8875 13.8219L3.59687 13.1125C3.9875 13.4531 4.42188 13.75 4.89062 13.9906ZM1.26875 8.5H0.265625C0.309375 9.1625 0.434375 9.80313 0.63125 10.4094L1.5625 10.0375C1.40937 9.54688 1.30625 9.03125 1.26875 8.5ZM1.26875 7.5C1.3125 6.9125 1.43125 6.34375 1.61563 5.80937L0.69375 5.41563C0.459375 6.07188 0.3125 6.77187 0.265625 7.5H1.26875ZM2.00938 4.89062C2.25313 4.425 2.54688 3.99062 2.8875 3.59375L2.17812 2.88438C1.75 3.37188 1.38125 3.90938 1.0875 4.49375L2.00938 4.89062ZM12.4062 13.1125C11.9719 13.4875 11.4875 13.8094 10.9656 14.0625L11.3375 14.9937C11.9844 14.6844 12.5813 14.2875 13.1156 13.8188L12.4062 13.1125ZM3.59375 2.8875C4.02813 2.5125 4.5125 2.19062 5.03438 1.9375L4.6625 1.00625C4.01562 1.31562 3.41875 1.7125 2.8875 2.18125L3.59375 2.8875ZM13.9906 11.1094C13.7469 11.575 13.4531 12.0094 13.1125 12.4062L13.8219 13.1156C14.25 12.6281 14.6188 12.0875 14.9125 11.5063L13.9906 11.1094ZM14.7312 8.5C14.6875 9.0875 14.5687 9.65625 14.3844 10.1906L15.3062 10.5844C15.5406 9.925 15.6875 9.225 15.7312 8.49687H14.7312V8.5ZM10.0375 14.4375C9.54688 14.5938 9.03125 14.6937 8.5 14.7312V15.7344C9.1625 15.6906 9.80313 15.5656 10.4094 15.3687L10.0375 14.4375ZM7.5 14.7312C6.9125 14.6875 6.34375 14.5687 5.80937 14.3844L5.41563 15.3062C6.075 15.5406 6.775 15.6875 7.50313 15.7312V14.7312H7.5ZM14.4375 5.9625C14.5938 6.45312 14.6937 6.96875 14.7312 7.5H15.7344C15.6906 6.8375 15.5656 6.19687 15.3687 5.59062L14.4375 5.9625ZM2.8875 12.4062C2.5125 11.9719 2.19062 11.4875 1.9375 10.9656L1.00625 11.3375C1.31562 11.9844 1.7125 12.5813 2.18125 13.1156L2.8875 12.4062ZM8.5 1.26875C9.0875 1.3125 9.65312 1.43125 10.1906 1.61563L10.5844 0.69375C9.92813 0.459375 9.22812 0.3125 8.5 0.265625V1.26875ZM5.9625 1.5625C6.45312 1.40625 6.96875 1.30625 7.5 1.26875V0.265625C6.8375 0.309375 6.19687 0.434375 5.59062 0.63125L5.9625 1.5625ZM13.8219 2.88438L13.1125 3.59375C13.4875 4.02813 13.8094 4.5125 14.0656 5.03438L14.9969 4.6625C14.6875 4.01562 14.2906 3.41875 13.8219 2.88438ZM12.4062 2.8875L13.1156 2.17812C12.6281 1.75 12.0906 1.38125 11.5063 1.0875L11.1125 2.00938C11.575 2.25313 12.0125 2.54688 12.4062 2.8875Z" fill="#9CA3AF"/>
<path d="M8 12.25C8.48325 12.25 8.875 11.8582 8.875 11.375C8.875 10.8918 8.48325 10.5 8 10.5C7.51675 10.5 7.125 10.8918 7.125 11.375C7.125 11.8582 7.51675 12.25 8 12.25Z" fill="#9CA3AF"/>
<path d="M8.24057 9.75H7.74057C7.53432 9.75 7.36557 9.58125 7.36557 9.375C7.36557 7.15625 9.78432 7.37812 9.78432 6.00625C9.78432 5.38125 9.22807 4.75 7.99057 4.75C7.0812 4.75 6.6062 5.05 6.14057 5.64687C6.0187 5.80312 5.7937 5.83438 5.63432 5.72188L5.22495 5.43437C5.04995 5.3125 5.00932 5.06562 5.1437 4.89687C5.8062 4.04687 6.5937 3.5 7.9937 3.5C9.62807 3.5 11.0374 4.43125 11.0374 6.00625C11.0374 8.11875 8.6187 7.99062 8.6187 9.375C8.61557 9.58125 8.44682 9.75 8.24057 9.75Z" fill="#9CA3AF"/>
</g>
</g>
<defs>
<clipPath id="clip0_8_75">
<rect width="16" height="16" fill="white"/>
</clipPath>
<clipPath id="clip1_8_75">
<path d="M0 0H16V16H0V0Z" fill="white"/>
</clipPath>
</defs>
</svg>
