<svg width="16" height="16" viewBox="0 0 16 16" fill="none" xmlns="http://www.w3.org/2000/svg">
<g clip-path="url(#clip0_106_270)">
<g clip-path="url(#clip1_106_270)">
<path d="M2 14.5H3V16H2C0.896875 16 0 15.1031 0 14V2C0 0.896875 0.896875 0 2 0H7.17188C7.70312 0 8.2125 0.209375 8.5875 0.584375L11.4156 3.4125C11.7906 3.7875 12 4.29688 12 4.82812V9H10.5V5H8C7.44688 5 7 4.55312 7 4V1.5H2C1.725 1.5 1.5 1.725 1.5 2V14C1.5 14.275 1.725 14.5 2 14.5ZM5.5 11H6.5C7.46562 11 8.25 11.7844 8.25 12.75C8.25 13.7156 7.46562 14.5 6.5 14.5H6V15.5C6 15.775 5.775 16 5.5 16C5.225 16 5 15.775 5 15.5V14V11.5C5 11.225 5.225 11 5.5 11ZM6.5 13.5C6.91563 13.5 7.25 13.1656 7.25 12.75C7.25 12.3344 6.91563 12 6.5 12H6V13.5H6.5ZM9.5 11H10.5C11.3281 11 12 11.6719 12 12.5V14.5C12 15.3281 11.3281 16 10.5 16H9.5C9.225 16 9 15.775 9 15.5V11.5C9 11.225 9.225 11 9.5 11ZM10.5 15C10.775 15 11 14.775 11 14.5V12.5C11 12.225 10.775 12 10.5 12H10V15H10.5ZM13 11.5C13 11.225 13.225 11 13.5 11H15C15.275 11 15.5 11.225 15.5 11.5C15.5 11.775 15.275 12 15 12H14V13H15C15.275 13 15.5 13.225 15.5 13.5C15.5 13.775 15.275 14 15 14H14V15.5C14 15.775 13.775 16 13.5 16C13.225 16 13 15.775 13 15.5V13.5V11.5Z" fill="currentColor"/>
</g>
</g>
<defs>
<clipPath id="clip0_106_270">
<rect width="16" height="16" fill="white"/>
</clipPath>
<clipPath id="clip1_106_270">
<path d="M0 0H16V16H0V0Z" fill="white"/>
</clipPath>
</defs>
</svg>
