<svg width="14" height="14" viewBox="0 0 14 14" fill="none" xmlns="http://www.w3.org/2000/svg">
<g clip-path="url(#clip0_46_1154)">
<g clip-path="url(#clip1_46_1154)">
<path d="M7.875 0.875C7.875 0.391016 7.48398 0 7 0C6.51602 0 6.125 0.391016 6.125 0.875V7.51133L4.11797 5.5043C3.77617 5.1625 3.22109 5.1625 2.8793 5.5043C2.5375 5.84609 2.5375 6.40117 2.8793 6.74297L6.3793 10.243C6.72109 10.5848 7.27617 10.5848 7.61797 10.243L11.118 6.74297C11.4598 6.40117 11.4598 5.84609 11.118 5.5043C10.7762 5.1625 10.2211 5.1625 9.8793 5.5043L7.875 7.51133V0.875ZM1.75 9.625C0.784766 9.625 0 10.4098 0 11.375V12.25C0 13.2152 0.784766 14 1.75 14H12.25C13.2152 14 14 13.2152 14 12.25V11.375C14 10.4098 13.2152 9.625 12.25 9.625H9.47461L8.23594 10.8637C7.55234 11.5473 6.44492 11.5473 5.76133 10.8637L4.52539 9.625H1.75ZM11.8125 11.1562C11.9865 11.1562 12.1535 11.2254 12.2765 11.3485C12.3996 11.4715 12.4688 11.6385 12.4688 11.8125C12.4688 11.9865 12.3996 12.1535 12.2765 12.2765C12.1535 12.3996 11.9865 12.4688 11.8125 12.4688C11.6385 12.4688 11.4715 12.3996 11.3485 12.2765C11.2254 12.1535 11.1562 11.9865 11.1562 11.8125C11.1562 11.6385 11.2254 11.4715 11.3485 11.3485C11.4715 11.2254 11.6385 11.1562 11.8125 11.1562Z" fill="black"/>
</g>
</g>
<defs>
<clipPath id="clip0_46_1154">
<rect width="14" height="14" fill="white"/>
</clipPath>
<clipPath id="clip1_46_1154">
<path d="M0 0H14V14H0V0Z" fill="white"/>
</clipPath>
</defs>
</svg>
