<svg width="17" height="16" viewBox="0 0 17 16" fill="none" xmlns="http://www.w3.org/2000/svg">

<g clip-path="url(#clip0_14_819)">
<path d="M15.6285 0.175119C15.9441 0.393869 16.1097 0.771994 16.0503 1.15012L14.0503 14.1501C14.0035 14.4532 13.8191 14.7189 13.5503 14.8689C13.2816 15.0189 12.9597 15.0376 12.6753 14.9189L8.93783 13.3657L6.7972 15.6814C6.51908 15.9845 6.08158 16.0845 5.6972 15.9345C5.31283 15.7845 5.06283 15.4126 5.06283 15.0001V12.3876C5.06283 12.2626 5.1097 12.1439 5.19408 12.0532L10.4316 6.33762C10.6128 6.14074 10.6066 5.83762 10.4191 5.65012C10.2316 5.46262 9.92845 5.45012 9.73158 5.62824L3.37533 11.2751L0.615951 9.89387C0.284701 9.72824 0.0722005 9.39699 0.0628255 9.02824C0.0534505 8.65949 0.247201 8.31574 0.565951 8.13137L14.566 0.131369C14.9003 -0.0592555 15.3128 -0.0405055 15.6285 0.175119Z" fill="currentColor"/>
</g>
<defs>
<clipPath id="clip0_14_819">
<path d="M0.0625 0H16.0625V16H0.0625V0Z" fill="white"/>
</clipPath>
</defs>
</svg>
