<svg width="12" height="16" viewBox="0 0 12 16" fill="none" xmlns="http://www.w3.org/2000/svg">
<path d="M1.5 0C0.671875 0 0 0.671875 0 1.5V14.5C0 15.3281 0.671875 16 1.5 16H4.5V13.5C4.5 12.6719 5.17188 12 6 12C6.82812 12 7.5 12.6719 7.5 13.5V16H10.5C11.3281 16 12 15.3281 12 14.5V1.5C12 0.671875 11.3281 0 10.5 0H1.5ZM2 7.5C2 7.225 2.225 7 2.5 7H3.5C3.775 7 4 7.225 4 7.5V8.5C4 8.775 3.775 9 3.5 9H2.5C2.225 9 2 8.775 2 8.5V7.5ZM5.5 7H6.5C6.775 7 7 7.225 7 7.5V8.5C7 8.775 6.775 9 6.5 9H5.5C5.225 9 5 8.775 5 8.5V7.5C5 7.225 5.225 7 5.5 7ZM8 7.5C8 7.225 8.225 7 8.5 7H9.5C9.775 7 10 7.225 10 7.5V8.5C10 8.775 9.775 9 9.5 9H8.5C8.225 9 8 8.775 8 8.5V7.5ZM2.5 3H3.5C3.775 3 4 3.225 4 3.5V4.5C4 4.775 3.775 5 3.5 5H2.5C2.225 5 2 4.775 2 4.5V3.5C2 3.225 2.225 3 2.5 3ZM5 3.5C5 3.225 5.225 3 5.5 3H6.5C6.775 3 7 3.225 7 3.5V4.5C7 4.775 6.775 5 6.5 5H5.5C5.225 5 5 4.775 5 4.5V3.5ZM8.5 3H9.5C9.775 3 10 3.225 10 3.5V4.5C10 4.775 9.775 5 9.5 5H8.5C8.225 5 8 4.775 8 4.5V3.5C8 3.225 8.225 3 8.5 3Z" fill="currentColor"/>
</svg>
