<svg width="15" height="16" viewBox="0 0 15 16" fill="none" xmlns="http://www.w3.org/2000/svg">
<path d="M5.46875 0.75C5.46875 0.334375 5.13438 0 4.71875 0C4.30312 0 3.96875 0.334375 3.96875 0.75V2H2.71875C1.61563 2 0.71875 2.89687 0.71875 4V4.5V6V14C0.71875 15.1031 1.61563 16 2.71875 16H12.7188C13.8219 16 14.7188 15.1031 14.7188 14V6V4.5V4C14.7188 2.89687 13.8219 2 12.7188 2H11.4688V0.75C11.4688 0.334375 11.1344 0 10.7188 0C10.3031 0 9.96875 0.334375 9.96875 0.75V2H5.46875V0.75ZM2.21875 6H13.2188V14C13.2188 14.275 12.9937 14.5 12.7188 14.5H2.71875C2.44375 14.5 2.21875 14.275 2.21875 14V6ZM7.71875 7.25C7.30312 7.25 6.96875 7.58437 6.96875 8V9.5H5.46875C5.05312 9.5 4.71875 9.83438 4.71875 10.25C4.71875 10.6656 5.05312 11 5.46875 11H6.96875V12.5C6.96875 12.9156 7.30312 13.25 7.71875 13.25C8.13438 13.25 8.46875 12.9156 8.46875 12.5V11H9.96875C10.3844 11 10.7188 10.6656 10.7188 10.25C10.7188 9.83438 10.3844 9.5 9.96875 9.5H8.46875V8C8.46875 7.58437 8.13438 7.25 7.71875 7.25Z" fill="currentColor"/>
</svg>
