<svg width="18" height="21" viewBox="0 0 18 21" fill="none" xmlns="http://www.w3.org/2000/svg">
<path d="M15 14.6249C14.24 14.6249 13.56 14.9249 13.04 15.3949L5.91 11.2449C5.96 11.0149 6 10.7849 6 10.5449C6 10.3049 5.96 10.0749 5.91 9.84492L12.96 5.73492C13.5 6.23492 14.21 6.54492 15 6.54492C15.7956 6.54492 16.5587 6.22885 17.1213 5.66624C17.6839 5.10363 18 4.34057 18 3.54492C18 2.74927 17.6839 1.98621 17.1213 1.4236C16.5587 0.860992 15.7956 0.544922 15 0.544922C14.2044 0.544922 13.4413 0.860992 12.8787 1.4236C12.3161 1.98621 12 2.74927 12 3.54492C12 3.78492 12.04 4.01492 12.09 4.24492L5.04 8.35492C4.5 7.85492 3.79 7.54492 3 7.54492C2.20435 7.54492 1.44129 7.86099 0.87868 8.4236C0.316071 8.98621 0 9.74927 0 10.5449C0 11.3406 0.316071 12.1036 0.87868 12.6662C1.44129 13.2289 2.20435 13.5449 3 13.5449C3.79 13.5449 4.5 13.2349 5.04 12.7349L12.16 16.8849C12.11 17.0949 12.08 17.3149 12.08 17.5449C12.08 19.1549 13.39 20.4549 15 20.4549C16.61 20.4549 17.92 19.1549 17.92 17.5449C17.92 16.7705 17.6124 16.0278 17.0648 15.4802C16.5171 14.9326 15.7744 14.6249 15 14.6249Z" fill="currentColor"/>
</svg>
