<svg width="21" height="20" viewBox="0 0 21 20" fill="none" xmlns="http://www.w3.org/2000/svg">
<path d="M2.5 8.83C2.89782 8.83 3.27936 8.67196 3.56066 8.39066C3.84196 8.10936 4 7.72782 4 7.33C4 6.93218 3.84196 6.55064 3.56066 6.26934C3.27936 5.98804 2.89782 5.83 2.5 5.83C2.10218 5.83 1.72064 5.98804 1.43934 6.26934C1.15804 6.55064 1 6.93218 1 7.33C1 7.72782 1.15804 8.10936 1.43934 8.39066C1.72064 8.67196 2.10218 8.83 2.5 8.83ZM20.17 7C20.17 3.13 17.04 0 13.17 0C11.3135 0 9.53301 0.737498 8.22025 2.05025C6.9075 3.36301 6.17 5.14348 6.17 7C6.17 10.47 8.69 13.33 12 13.89V17.83H4V14.83H5V10.83C5 10.5648 4.89464 10.3104 4.70711 10.1229C4.51957 9.93536 4.26522 9.83 4 9.83H1C0.734784 9.83 0.48043 9.93536 0.292893 10.1229C0.105357 10.3104 0 10.5648 0 10.83V14.83H1V19.83H17V17.83H14V13.95C17.47 13.54 20.17 10.59 20.17 7Z" fill="currentColor"/>
</svg>
