<svg width="11" height="16" viewBox="0 0 11 16" fill="none" xmlns="http://www.w3.org/2000/svg">
<g clip-path="url(#clip0_23_295)">
<g clip-path="url(#clip1_23_295)">
<path d="M4.38729 1.2937C4.77791 0.903076 5.41229 0.903076 5.80291 1.2937L9.80291 5.2937C10.0904 5.5812 10.1748 6.00933 10.0185 6.38433C9.86229 6.75933 9.49979 7.00308 9.09354 7.00308H1.09354C0.690412 7.00308 0.324787 6.75933 0.168537 6.38433C0.0122866 6.00933 0.0997865 5.5812 0.384162 5.2937L4.38416 1.2937H4.38729ZM4.38729 14.7093L0.387287 10.7093C0.0997865 10.4218 0.0154115 9.9937 0.171662 9.6187C0.327912 9.2437 0.690411 8.99995 1.09666 8.99995H9.09354C9.49666 8.99995 9.86229 9.2437 10.0185 9.6187C10.1748 9.9937 10.0873 10.4218 9.80291 10.7093L5.80291 14.7093C5.41229 15.1 4.77791 15.1 4.38729 14.7093Z" fill="black"/>
</g>
</g>
<defs>
<clipPath id="clip0_23_295">
<rect width="10" height="16" fill="white" transform="translate(0.09375)"/>
</clipPath>
<clipPath id="clip1_23_295">
<path d="M0.09375 0H10.0938V16H0.09375V0Z" fill="white"/>
</clipPath>
</defs>
</svg>
