<svg width="24" height="24" viewBox="0 0 24 24" fill="none" xmlns="http://www.w3.org/2000/svg">
<path d="M14.3496 8.81543L14.4678 9.09277L14.7666 9.11816L20.7783 9.63574L16.2129 13.5918L15.9844 13.79L16.0527 14.084L17.4238 19.96L12.2588 16.8418L12 16.6855L11.7412 16.8418L6.57324 19.9609L7.9375 14.083L8.00488 13.79L7.77734 13.5928L3.21973 9.63672L9.2334 9.11816L9.53223 9.09277L9.65039 8.81543L12 3.27832L14.3496 8.81543Z" fill="currentColor"/>
<path d="M14.3496 8.81543L14.4678 9.09277L14.7666 9.11816L20.7783 9.63574L16.2129 13.5918L15.9844 13.79L16.0527 14.084L17.4238 19.96L12.2588 16.8418L12 16.6855L11.7412 16.8418L6.57324 19.9609L7.9375 14.083L8.00488 13.79L7.77734 13.5928L3.21973 9.63672L9.2334 9.11816L9.53223 9.09277L9.65039 8.81543L12 3.27832L14.3496 8.81543Z" stroke="currentColor"/>
<path d="M14.3496 8.81543L14.4678 9.09277L14.7666 9.11816L20.7783 9.63574L16.2129 13.5918L15.9844 13.79L16.0527 14.084L17.4238 19.96L12.2588 16.8418L12 16.6855L11.7412 16.8418L6.57324 19.9609L7.9375 14.083L8.00488 13.79L7.77734 13.5928L3.21973 9.63672L9.2334 9.11816L9.53223 9.09277L9.65039 8.81543L12 3.27832L14.3496 8.81543Z" stroke="currentColor" stroke-opacity="0.2"/>
</svg>
