<svg width="24" height="18" viewBox="0 0 24 18" fill="none" xmlns="http://www.w3.org/2000/svg">
<path d="M9 1.5V2.0625L4.5 1.5C3.67031 1.5 3 2.17031 3 3C3 3.82969 3.67031 4.5 4.5 4.5L9 3.9375L10.4531 3.75469L10.5 3.75L10.5469 3.75469L12 3.9375L16.5 4.5C17.3297 4.5 18 3.82969 18 3C18 2.17031 17.3297 1.5 16.5 1.5L12 2.0625V1.5C12 0.670312 11.3297 0 10.5 0C9.67031 0 9 0.670312 9 1.5ZM1.5 9C0.670312 9 0 9.67031 0 10.5V13.5C0 14.3297 0.670312 15 1.5 15H6.19219C7.13906 16.3594 8.71875 17.25 10.5 17.25C12.2812 17.25 13.8609 16.3594 14.8078 15H16.5C17.3297 15 18 15.6703 18 16.5C18 17.3297 18.6703 18 19.5 18H22.5C23.3297 18 24 17.3297 24 16.5C24 12.3562 20.6437 9 16.5 9H15L13.9406 7.94062C13.6594 7.65937 13.2797 7.5 12.8812 7.5H12V5.44687L10.5 5.25937L9 5.44687V7.5H8.12344C7.725 7.5 7.34531 7.65937 7.06406 7.94062L6 9H1.5Z" fill="currentColor"/>
</svg>
