<svg width="13" height="16" viewBox="0 0 13 16" fill="none" xmlns="http://www.w3.org/2000/svg">
<g clip-path="url(#clip0_46_658)">
<path d="M9.6875 2H10.9375C12.0406 2 12.9375 2.89687 12.9375 4V14C12.9375 15.1031 12.0406 16 10.9375 16H2.9375C1.83438 16 0.9375 15.1031 0.9375 14V4C0.9375 2.89687 1.83438 2 2.9375 2H4.1875H4.4875C4.71875 0.859375 5.72813 0 6.9375 0C8.14687 0 9.15625 0.859375 9.3875 2H9.6875ZM2.9375 3.5C2.6625 3.5 2.4375 3.725 2.4375 4V14C2.4375 14.275 2.6625 14.5 2.9375 14.5H10.9375C11.2125 14.5 11.4375 14.275 11.4375 14V4C11.4375 3.725 11.2125 3.5 10.9375 3.5H10.4375V4.25C10.4375 4.66563 10.1031 5 9.6875 5H6.9375H4.1875C3.77187 5 3.4375 4.66563 3.4375 4.25V3.5H2.9375ZM6.9375 3.25C7.13641 3.25 7.32718 3.17098 7.46783 3.03033C7.60848 2.88968 7.6875 2.69891 7.6875 2.5C7.6875 2.30109 7.60848 2.11032 7.46783 1.96967C7.32718 1.82902 7.13641 1.75 6.9375 1.75C6.73859 1.75 6.54782 1.82902 6.40717 1.96967C6.26652 2.11032 6.1875 2.30109 6.1875 2.5C6.1875 2.69891 6.26652 2.88968 6.40717 3.03033C6.54782 3.17098 6.73859 3.25 6.9375 3.25Z" fill="currentColor"/>
</g>
<defs>
<clipPath id="clip0_46_658">
<path d="M0.9375 0H12.9375V16H0.9375V0Z" fill="white"/>
</clipPath>
</defs>
</svg>
