<svg width="30" height="24" viewBox="0 0 30 24" fill="none" xmlns="http://www.w3.org/2000/svg">

<path d="M6.75 22.5C3.02344 22.5 0 19.4766 0 15.75C0 12.8062 1.88437 10.3031 4.50937 9.37969C4.50469 9.25313 4.5 9.12656 4.5 9C4.5 4.85625 7.85625 1.5 12 1.5C14.7797 1.5 17.2031 3.00937 18.5016 5.25937C19.2141 4.78125 20.0766 4.5 21 4.5C23.4844 4.5 25.5 6.51562 25.5 9C25.5 9.57187 25.3922 10.1156 25.2 10.6219C27.9375 11.175 30 13.5984 30 16.5C30 19.8141 27.3141 22.5 24 22.5H6.75ZM10.4531 12.3281C10.0125 12.7688 10.0125 13.4812 10.4531 13.9172C10.8938 14.3531 11.6062 14.3578 12.0422 13.9172L13.8703 12.0891V18.375C13.8703 18.9984 14.3719 19.5 14.9953 19.5C15.6187 19.5 16.1203 18.9984 16.1203 18.375V12.0891L17.9484 13.9172C18.3891 14.3578 19.1016 14.3578 19.5375 13.9172C19.9734 13.4766 19.9781 12.7641 19.5375 12.3281L15.7875 8.57812C15.3469 8.1375 14.6344 8.1375 14.1984 8.57812L10.4484 12.3281H10.4531Z" fill="currentColor"/>
</svg>
