<svg width="16" height="14" viewBox="0 0 16 14" fill="none" xmlns="http://www.w3.org/2000/svg">
<g clip-path="url(#clip0_43_21)">
<path d="M0 3.5C0 2.53477 0.784766 1.75 1.75 1.75H8.75C9.71523 1.75 10.5 2.53477 10.5 3.5V10.5C10.5 11.4652 9.71523 12.25 8.75 12.25H1.75C0.784766 12.25 0 11.4652 0 10.5V3.5ZM15.2879 2.72891C15.5723 2.88203 15.75 3.17734 15.75 3.5V10.5C15.75 10.8227 15.5723 11.118 15.2879 11.2711C15.0035 11.4242 14.659 11.4078 14.3883 11.2273L11.7633 9.47734L11.375 9.21758V8.75V5.25V4.78242L11.7633 4.52266L14.3883 2.77266C14.6562 2.59492 15.0008 2.57578 15.2879 2.72891Z" fill="black"/>
</g>
<defs>
<clipPath id="clip0_43_21">
<path d="M0 0H15.75V14H0V0Z" fill="white"/>
</clipPath>
</defs>
</svg>
